<svg viewBox="0 0 1100 760" xmlns="http://www.w3.org/2000/svg" font-family="'Big Shoulders Display', 'Hanley Pro', sans-serif">
  <title>Figure 01: Controller mapping</title>
  <rect width="1100" height="760" fill="#FFFFFF"/>
  <text x="550" y="35" text-anchor="middle" font-weight="800" font-size="12" letter-spacing="4" fill="#DB4937">FIG. 01</text>
  <text x="550" y="65" text-anchor="middle" font-weight="800" font-size="22" letter-spacing="3" fill="#153047">MY CONTROLLY MAPPING</text>
  <text x="550" y="92" text-anchor="middle" font-family="Mulish, sans-serif" font-style="italic" font-size="13" fill="#153047">Xbox controller, viewed from above. All shortcuts target Claude desktop on Mac.</text>
  <path d="M 365 215 Q 395 200 435 200 L 445 215 Z" fill="#FFFFFF" stroke="#153047" stroke-width="2"/>
  <path d="M 735 215 Q 705 200 665 200 L 655 215 Z" fill="#FFFFFF" stroke="#153047" stroke-width="2"/>
  <path d="M 360 215 L 460 217 L 460 240 L 360 245 Z" fill="#FFFFFF" stroke="#153047" stroke-width="2.5" stroke-linejoin="miter"/>
  <path d="M 740 215 L 640 217 L 640 240 L 740 245 Z" fill="#FFFFFF" stroke="#153047" stroke-width="2.5" stroke-linejoin="miter"/>
  <path d="M 380 250 Q 405 235 440 235 L 660 235 Q 695 235 720 250 Q 750 270 765 310 Q 785 370 780 435 Q 770 510 730 545 Q 695 565 670 545 Q 650 520 660 470 Q 663 435 640 425 L 460 425 Q 437 435 440 470 Q 450 520 430 545 Q 405 565 370 545 Q 330 510 320 435 Q 315 370 335 310 Q 350 270 380 250 Z" fill="#FFFFFF" stroke="#153047" stroke-width="2.5" stroke-linejoin="miter"/>
  <path d="M 470 410 Q 550 405 630 410" fill="none" stroke="#153047" stroke-width="1" opacity="0.4"/>
  <circle cx="430" cy="300" r="26" fill="#FFFFFF" stroke="#153047" stroke-width="2.5"/>
  <circle cx="430" cy="300" r="22" fill="none" stroke="#153047" stroke-width="1" opacity="0.4"/>
  <circle cx="430" cy="300" r="13" fill="#153047"/>
  <rect x="473" y="365" width="14" height="36" fill="#FFFFFF" stroke="#153047" stroke-width="2.5" stroke-linejoin="miter"/>
  <rect x="462" y="376" width="36" height="14" fill="#FFFFFF" stroke="#153047" stroke-width="2.5" stroke-linejoin="miter"/>
  <rect x="502" y="298" width="20" height="11" rx="3" fill="#FFFFFF" stroke="#153047" stroke-width="2"/>
  <circle cx="550" cy="292" r="16" fill="#FFFFFF" stroke="#153047" stroke-width="2.5"/>
  <circle cx="550" cy="292" r="11" fill="none" stroke="#153047" stroke-width="1" opacity="0.5"/>
  <rect x="578" y="298" width="20" height="11" rx="3" fill="#FFFFFF" stroke="#153047" stroke-width="2"/>
  <circle cx="680" cy="290" r="14" fill="#FFFFFF" stroke="#153047" stroke-width="2.5"/>
  <text x="680" y="295" text-anchor="middle" font-family="Mulish, sans-serif" font-size="13" font-weight="700" fill="#153047">Y</text>
  <circle cx="654" cy="316" r="14" fill="#FFFFFF" stroke="#153047" stroke-width="2.5"/>
  <text x="654" y="321" text-anchor="middle" font-family="Mulish, sans-serif" font-size="13" font-weight="700" fill="#153047">X</text>
  <circle cx="706" cy="316" r="14" fill="#DB4937" stroke="#DB4937" stroke-width="2.5"/>
  <text x="706" y="321" text-anchor="middle" font-family="Mulish, sans-serif" font-size="13" font-weight="700" fill="#FFFFFF">B</text>
  <circle cx="680" cy="342" r="14" fill="#FFFFFF" stroke="#153047" stroke-width="2.5"/>
  <text x="680" y="347" text-anchor="middle" font-family="Mulish, sans-serif" font-size="13" font-weight="700" fill="#153047">A</text>
  <circle cx="620" cy="380" r="26" fill="#FFFFFF" stroke="#153047" stroke-width="2.5"/>
  <circle cx="620" cy="380" r="22" fill="none" stroke="#153047" stroke-width="1" opacity="0.4"/>
  <circle cx="620" cy="380" r="13" fill="#153047"/>
  <line x1="358" y1="207" x2="195" y2="170" stroke="#153047" stroke-width="1"/>
  <text x="185" y="166" text-anchor="end" font-weight="800" font-size="13" letter-spacing="2" fill="#153047">L. TRIGGER</text>
  <text x="185" y="186" text-anchor="end" font-family="Mulish, sans-serif" font-size="12" fill="#153047">Mission Control</text>
  <line x1="358" y1="225" x2="195" y2="235" stroke="#153047" stroke-width="1"/>
  <text x="185" y="231" text-anchor="end" font-weight="800" font-size="13" letter-spacing="2" fill="#153047">L. BUMPER</text>
  <text x="185" y="251" text-anchor="end" font-family="Mulish, sans-serif" font-size="12" fill="#153047">⌘1 / Chat</text>
  <line x1="500" y1="304" x2="195" y2="296" stroke="#153047" stroke-width="1"/>
  <text x="185" y="292" text-anchor="end" font-weight="800" font-size="13" letter-spacing="2" fill="#153047">VIEW BUTTON</text>
  <text x="185" y="312" text-anchor="end" font-family="Mulish, sans-serif" font-size="12" fill="#153047">⌘2 / Cowork</text>
  <line x1="406" y1="304" x2="195" y2="365" stroke="#153047" stroke-width="1"/>
  <text x="185" y="361" text-anchor="end" font-weight="800" font-size="13" letter-spacing="2" fill="#153047">L. STICK</text>
  <text x="185" y="381" text-anchor="end" font-family="Mulish, sans-serif" font-size="12" fill="#153047">Move cursor</text>
  <line x1="430" y1="326" x2="195" y2="440" stroke="#153047" stroke-width="1"/>
  <text x="185" y="436" text-anchor="end" font-weight="800" font-size="13" letter-spacing="2" fill="#153047">L. STICK CLICK</text>
  <text x="185" y="456" text-anchor="end" font-family="Mulish, sans-serif" font-size="12" fill="#153047">⌘B / Collapse sidebar</text>
  <line x1="465" y1="395" x2="290" y2="555" stroke="#153047" stroke-width="1"/>
  <text x="280" y="551" text-anchor="end" font-weight="800" font-size="13" letter-spacing="2" fill="#153047">D-PAD</text>
  <text x="280" y="571" text-anchor="end" font-family="Mulish, sans-serif" font-size="12" fill="#153047">Arrow keys</text>
  <line x1="742" y1="207" x2="905" y2="170" stroke="#153047" stroke-width="1"/>
  <text x="915" y="166" font-weight="800" font-size="13" letter-spacing="2" fill="#153047">R. TRIGGER</text>
  <text x="915" y="186" font-family="Mulish, sans-serif" font-size="12" fill="#153047">⌘D / Start dictation</text>
  <line x1="742" y1="225" x2="905" y2="235" stroke="#153047" stroke-width="1"/>
  <text x="915" y="231" font-weight="800" font-size="13" letter-spacing="2" fill="#153047">R. BUMPER</text>
  <text x="915" y="251" font-family="Mulish, sans-serif" font-size="12" fill="#153047">⌘3 / Claude Code</text>
  <line x1="600" y1="304" x2="905" y2="296" stroke="#153047" stroke-width="1"/>
  <text x="915" y="292" font-weight="800" font-size="13" letter-spacing="2" fill="#153047">MENU BUTTON</text>
  <text x="915" y="312" font-family="Mulish, sans-serif" font-size="12" fill="#153047">⌘K / Conversation menu</text>
  <line x1="694" y1="290" x2="905" y2="360" stroke="#153047" stroke-width="1"/>
  <text x="915" y="356" font-weight="800" font-size="13" letter-spacing="2" fill="#153047">Y BUTTON</text>
  <text x="915" y="376" font-family="Mulish, sans-serif" font-size="12" fill="#153047">⌘V / Paste</text>
  <line x1="720" y1="316" x2="905" y2="425" stroke="#DB4937" stroke-width="1.5"/>
  <text x="915" y="421" font-weight="800" font-size="13" letter-spacing="2" fill="#DB4937">B BUTTON</text>
  <text x="915" y="441" font-family="Mulish, sans-serif" font-size="12" fill="#DB4937">Return / Send: the workhorse</text>
  <line x1="694" y1="342" x2="905" y2="490" stroke="#153047" stroke-width="1"/>
  <text x="915" y="486" font-weight="800" font-size="13" letter-spacing="2" fill="#153047">A BUTTON</text>
  <text x="915" y="506" font-family="Mulish, sans-serif" font-size="12" fill="#153047">Primary click</text>
  <line x1="668" y1="316" x2="905" y2="555" stroke="#153047" stroke-width="1"/>
  <text x="915" y="551" font-weight="800" font-size="13" letter-spacing="2" fill="#153047">X BUTTON</text>
  <text x="915" y="571" font-family="Mulish, sans-serif" font-size="12" fill="#153047">⌘C / Copy</text>
  <line x1="645" y1="392" x2="820" y2="635" stroke="#153047" stroke-width="1"/>
  <text x="830" y="631" font-weight="800" font-size="13" letter-spacing="2" fill="#153047">R. STICK</text>
  <text x="830" y="651" font-family="Mulish, sans-serif" font-size="12" fill="#153047">Scroll</text>
  <line x1="620" y1="406" x2="555" y2="705" stroke="#153047" stroke-width="1"/>
  <text x="555" y="721" text-anchor="middle" font-weight="800" font-size="13" letter-spacing="2" fill="#153047">R. STICK CLICK</text>
  <text x="555" y="741" text-anchor="middle" font-family="Mulish, sans-serif" font-size="12" fill="#153047">⌘. / Cancel</text>
</svg>