<?xml version="1.0" encoding="UTF-8"?>
<svg id="Layer_1" data-name="Layer 1" xmlns="http://www.w3.org/2000/svg" viewBox="0 0 212 212">
  <circle cx="106" cy="106" r="106" fill="#db4937" stroke-width="0"/>
  <path d="M186.54,95.11v-.02c-.25-1.33-1.04-2.51-2.14-3.25-1.07-.72-2.42-.97-3.75-.71-1.81.35-3.27,1.66-3.83,3.39-4.67,14.51-15.22,24.36-28.96,27.03-6.59,1.28-11.67.48-14.66-2.3-1.74-1.64-2.84-4.11-3.17-7.21,22.58-6.31,34.68-15.09,35.97-26.11.21-1.79.16-3.53-.15-5.16-.56-2.84-1.92-5.34-3.94-7.2-3.34-3.12-8.23-4.34-13.41-3.32-4.88.94-9.83,3.66-14.3,7.86-3.2,3.01-6,6.57-8.32,10.62-.33.33-.62.74-.84,1.15-5.16,9.58-13.38,17.35-25.11,23.71-.08.03-.33,0-.54-.18-3.71-2.93-7.66-5.31-11.47-7.63l-.51-.31c-7.4-4.44-13.8-8.28-16.47-14.46,7.77-1.23,15.73-3.65,23.01-7,8.48-3.94,19.74-11.91,25.74-20.82,3.65-5.41,5.11-11.18,4.12-16.29-.38-1.87-1.07-3.62-2.09-5.14-2.25-3.4-7.97-8.71-20.94-6.18-20.44,3.98-39.69,25.24-41.18,45.56l-.03.74c-7.97.02-14.49-1.48-19.1-4.42-2.74-1.76-4.45-4.01-4.95-6.51-.71-3.65,1.22-7.76,4.77-10.21,1.66-1.13,2.47-3.14,2.07-5.08-.12-.66-.38-1.3-.79-1.91-1.13-1.64-3.12-2.45-5.08-2.07-.66.12-1.3.38-1.91.79-6.8,4.68-10.39,12.88-8.91,20.39,1.02,5.26,4.26,9.78,9.37,13.03,6.38,4.09,15.14,6.15,25.42,6.01.02-.02.15.05.15.07,3.17,11.01,12.54,16.65,21.59,22.1l.16.08c2.32,1.41,4.72,2.86,6.98,4.39-.49.2-1,.39-1.5.59-1.28.49-2.68,1-4.22,1.58-13.8,5.05-36.91,13.49-32.67,35.28,2.12,10.88,11.42,21.1,27.3,21.1,2.53,0,5.21-.26,8.07-.82,17.39-3.37,29.06-16.25,29.06-32.06,0-2.09-.21-4.22-.62-6.38-1.27-6.43-3.75-11.91-7.61-16.8,4.73-2.74,9.01-5.78,12.74-9.06.08,1.15.23,2.25.44,3.34.87,4.54,2.94,8.41,6,11.26,3.78,3.53,10.93,7.25,23.44,4.82,8.45-1.64,16.25-5.6,22.61-11.49,6.34-5.88,11.18-13.59,13.99-22.3.26-.79.31-1.64.15-2.5ZM141.06,85.43c3.06-2.86,6.38-4.75,9.35-5.32.56-.12,1.1-.16,1.61-.16,1.28,0,2.37.35,3.06.99.46.41.76,1,.92,1.74.15.79.1,1.54.03,2.05-.69,5.85-9.38,11.67-24.7,16.47,1.86-5.97,5.34-11.64,9.73-15.76ZM102.74,45.41c1.56-.3,3.02-.44,4.32-.44,1.48,0,2.78.18,3.85.58,1.76.62,2.78,1.73,3.09,3.34.44,2.35-.51,5.52-2.63,8.66-4.9,7.3-14.64,14.08-21.63,17.32-6.34,2.93-13.26,5.03-20.03,6.11,1.66-15.66,17.22-32.49,33.03-35.56ZM78.71,166.96c-4.62,0-15.61-1.25-17.85-12.8-2.19-11.26,7.97-17.34,26.28-24.04,1.59-.59,3.07-1.13,4.37-1.64,2.19-.85,4.26-1.73,6.2-2.6.05-.03.1-.03.15-.03.11,0,.25.05.33.15,3.5,3.98,5.7,8.46,6.74,13.76,2.45,12.67-6.16,23.88-20.48,26.66-1.87.38-3.8.56-5.74.56Z" fill="#fff" stroke-width="0"/>
</svg>